<svg fill="none" viewBox="0 0 33 32" xmlns="http://www.w3.org/2000/svg"><path d="m25.275 16v8.0925c.0005.0898-.0168.1787-.051.2618-.0341.083-.0843.1584-.1478.2219s-.1389.1137-.2219.1478c-.0831.0342-.172.0515-.2618.051h-16.18501c-.08977.0005-.17874-.0168-.26177-.051-.08303-.0341-.15847-.0843-.22194-.1478-.06348-.0635-.11373-.1389-.14785-.2219-.03413-.0831-.05144-.172-.05094-.2618v-16.18501c-.0005-.08977.01681-.17874.05094-.26177.03412-.08303.08437-.15847.14785-.22194.06347-.06348.13891-.11373.22194-.14785.08303-.03413.172-.05144.26177-.05094h8.09251" stroke="#fff"/><g clip-rule="evenodd" fill="#fff" fill-rule="evenodd"><path d="m24.775 7.72498h-5.155v-1h6.155v6.34252h-1z"/><path d="m25.3397 7.68729-13.2338 13.80371-.7218-.692 13.2337-13.80376z"/></g></svg>
