<svg viewBox="0 0 33 32" xmlns="http://www.w3.org/2000/svg"><path d="m8.47498 8.29126c-.13808 0-.25.11193-.25.25v12.19124c0 .1381.11192.25.25.25h16.05372c.1381 0 .25-.1119.25-.25v-12.19124c0-.13807-.1119-.25-.25-.25zm-1.25.25c0-.69036.55964-1.25 1.25-1.25h16.05372c.6904 0 1.25.55964 1.25 1.25v12.19124c0 .6904-.5596 1.25-1.25 1.25h-16.05372c-.69036 0-1.25-.5596-1.25-1.25z"/><path d="m25.275 19.2375h-17.55002v-1h17.55002z"/><path d="m13.7845 24.1687 1.125-2.8688.931.3651-1.125 2.8688z"/><path d="m18.472 24.5338-1.125-2.8688.931-.3651 1.125 2.8688z"/><path d="m20.5913 24.7087h-8.1825v-1h8.1825z"/></svg>
