<svg viewBox="0 0 33 32" xmlns="http://www.w3.org/2000/svg"><path d="m25.62 16.5h-2.1112v-1h2.1112z"/><path d="m19.0088 16.5h-11.6288v-1h11.6288z"/><path d="m25.62 10.4888h-11.1675v-1.00003h11.1675z"/><path d="m9.96001 10.4888h-2.58001v-1.00003h2.58001z"/><path d="m25.62 22.5112h-7.995v-1h7.995z"/><path d="m13.125 22.5112h-5.745v-1h5.745z"/><path d="m12.2063 8.1225c-.9665 0-1.75.7835-1.75 1.75s.7835 1.75 1.75 1.75 1.75-.7835 1.75-1.75-.7835-1.75-1.75-1.75zm-2.75 1.75c0-1.51879 1.2312-2.75 2.75-2.75s2.75 1.23121 2.75 2.75c0 1.5188-1.2312 2.75-2.75 2.75s-2.75-1.2312-2.75-2.75z"/><path d="m21.2588 14.25c-.9665 0-1.75.7835-1.75 1.75s.7835 1.75 1.75 1.75 1.75-.7835 1.75-1.75-.7835-1.75-1.75-1.75zm-2.75 1.75c0-1.5188 1.2312-2.75 2.75-2.75s2.75 1.2312 2.75 2.75-1.2312 2.75-2.75 2.75-2.75-1.2312-2.75-2.75z"/><path d="m15.375 20.2612c-.9665 0-1.75.7835-1.75 1.75s.7835 1.75 1.75 1.75 1.75-.7835 1.75-1.75-.7835-1.75-1.75-1.75zm-2.75 1.75c0-1.5188 1.2312-2.75 2.75-2.75s2.75 1.2312 2.75 2.75-1.2312 2.75-2.75 2.75-2.75-1.2312-2.75-2.75z"/></svg>
