<svg fill="none" height="32" viewBox="0 0 33 32" width="33" xmlns="http://www.w3.org/2000/svg"><g clip-rule="evenodd" fill="#fff" fill-rule="evenodd"><path d="m11.0241 12.8801c1.2039-1.2109 2.9486-2.3709 5.1925-2.3154 2.2331.0553 3.9568 1.2322 5.141 2.4294 1.1854 1.1984 1.8673 2.4531 2.0234 2.7489l.0053.01.0047.0102c.0344.0747.0522.1561.0522.2384 0 .077-.0156.1531-.0458.2238-1.1396 2.9022-4.1683 5.5532-7.9526 5.2209l-.0047-.0004c-.521-.0517-1.031-.1824-1.5127-.3875l-.0143-.0061-.0139-.0072-.0171-.0089-.0474-.0247c-.0408-.0213-.0992-.052-.1698-.0894-.1409-.0747-.3315-.1769-.5286-.2862-.1963-.1088-.4029-.2267-.5747-.3326-.0856-.0528-.1665-.1049-.2348-.1532-.0603-.0425-.138-.1007-.1961-.1654l.6199-.5569c-.0021-.0024-.0033-.0036-.0032-.0037.0002-.0002.0161.0142.0602.0454.0484.0342.1131.0762.1912.1244.1558.096.3496.2068.5415.3132.1912.1059.3768.2055.5149.2787.069.0366.1259.0665.1655.0872l.0457.0238.0018.0009c.399.1682.821.2757 1.252.3187 3.2861.2873 5.9948-1.9911 7.0625-4.5983-.2194-.4001-.8328-1.4424-1.8176-2.438-1.1025-1.1145-2.6335-2.1344-4.5691-2.1823-1.9249-.0476-3.4615.9439-4.581 2.0698-.9985 1.0043-1.63165 2.083-1.87131 2.5207.64601 1.0188 1.41231 1.9564 2.28251 2.7925l-.5774.6009c-.9581-.9206-1.79687-1.9578-2.49671-3.0872l-.00468-.0076-.00435-.0077c-.04818-.0857-.07349-.1824-.07349-.2808 0-.096.02414-.1905.07016-.2747.178-.336.88302-1.6354 2.08437-2.8436z"/><path d="m16.1094 14.2167c-.9625 0-1.7427.7802-1.7427 1.7427s.7802 1.7427 1.7427 1.7427c.9624 0 1.7427-.7802 1.7427-1.7427s-.7803-1.7427-1.7427-1.7427zm-2.5761 1.7427c0-1.4227 1.1534-2.576 2.5761-2.576s2.576 1.1533 2.576 2.576-1.1533 2.576-2.576 2.576-2.5761-1.1533-2.5761-2.576z"/><path d="m9.06165 22.4991 13.66875-13.66872.5893.58926-13.6688 13.66876z"/></g></svg>