<svg viewBox="0 0 32 32" xmlns="http://www.w3.org/2000/svg"><path d="m12.115 7.22626c-.3597 0-.6513.29157-.6513.65125v17.14499c0 .3597.2916.6513.6513.6513h7.95c.3597 0 .6512-.2916.6512-.6513v-17.14499c0-.35968-.2915-.65125-.6512-.65125zm-1.6513.65125c0-.91196.7393-1.65125 1.6513-1.65125h7.95c.912 0 1.6512.73929 1.6512 1.65125v17.14499c0 .912-.7392 1.6513-1.6512 1.6513h-7.95c-.912 0-1.6513-.7393-1.6513-1.6513z"/><path d="m13.7188 8.32751c0-.27614.2238-.5.5-.5h2.28c.2761 0 .5.22386.5.5 0 .27615-.2239.5-.5.5h-2.28c-.2762 0-.5-.22385-.5-.5z"/><path d="m15.02 24.5012c0-.2761.2239-.5.5-.5h1.14c.2762 0 .5.2239.5.5 0 .2762-.2238.5-.5.5h-1.14c-.2761 0-.5-.2238-.5-.5z"/><path d="m17.72 8.32751c0-.27614.2238-.5.5-.5h.1875c.2761 0 .5.22386.5.5 0 .27615-.2239.5-.5.5h-.1875c-.2762 0-.5-.22385-.5-.5z"/><path d="m21.2162 23.46h-10.2525v-1h10.2525z"/><path d="m21.2162 10.4813h-10.2525v-1.00004h10.2525z"/></svg>
