<svg fill="none" viewBox="0 0 32 32" xmlns="http://www.w3.org/2000/svg"><g clip-rule="evenodd" fill="#fff" fill-rule="evenodd"><path d="m16.3187 9.01251c2.7861 0 5.375 2.25519 5.375 5.11249v.0007c-.0012.839-.2097 1.6647-.6071 2.4036-.1334.2482-.2756.4914-.4211.7404-.2424.4145-.4941.845-.7303 1.3414-.363.7628-.6302 1.5758-.6302 2.4402h-1c0-1.0707.3309-2.037.7272-2.8699.249-.523.5497-1.0396.8091-1.4851.1379-.2368.264-.4536.3645-.6405l.0001-.0001c.3192-.5937.4868-1.257.4878-1.9311-.0002-2.2349-2.0687-4.1121-4.375-4.1121z"/><path d="m16.375 9.01251c-2.7861 0-5.375 2.25519-5.375 5.11249v.0007c.0012.839.2098 1.6647.6071 2.4036.1334.2482.2756.4914.4211.7404.2424.4145.4941.845.7303 1.3414.363.7628.6302 1.5758.6302 2.4402h1c0-1.0707-.3308-2.037-.7272-2.8699-.2489-.523-.5497-1.0396-.809-1.4851-.1379-.2368-.2641-.4536-.3646-.6405v-.0001c-.3193-.5937-.4869-1.257-.4879-1.9311.0002-2.2349 2.0687-4.1121 4.375-4.1121z"/><path d="m13.6562 21.4462c-.1629 0-.295.1321-.295.295v.0038c0 .1629.1321.295.295.295h.3361c.0327-.0025.0657-.0037.099-.0037h4.6387c.0333 0 .0663.0012.099.0037h.336c.1629 0 .295-.1321.295-.295v-.0038c0-.1629-.1321-.295-.295-.295zm-1.295.2988c0 .4368.2163.8231.5475 1.0576-.0722.1614-.1124.3403-.1124.5287v.0037c0 .7152.5798 1.295 1.295 1.295h.6123c.0085.1601.0393.3185.0921.4707.0773.223.1999.4277.3601.601.1603.1734.3546.3117.5709.4063.2163.0947.4498.1435.6858.1435.2361 0 .4696-.0488.6859-.1435.2163-.0946.4106-.2329.5709-.4063.1602-.1733.2828-.378.3601-.601.0528-.1522.0836-.3106.092-.4707h.6086c.7152 0 1.295-.5798 1.295-1.295v-.0037c0-.1884-.0402-.3673-.1125-.5288.3312-.2345.5475-.6208.5475-1.0575v-.0038c0-.7152-.5798-1.295-1.295-1.295h-5.5088c-.7152 0-1.295.5798-1.295 1.295zm4.7569 2.885h-1.4111c.0062.0486.0174.0966.0335.1432.0322.0927.0831.1777.1497.2498.0666.072.1474.1295.2373.1689.0899.0393.1869.0596.285.0596.0982 0 .1952-.0203.2851-.0596.0899-.0394.1707-.0969.2373-.1689.0666-.0721.1175-.1571.1497-.2498.0161-.0466.0273-.0946.0335-.1432zm-3.3218-1.2987c0-.147.1074-.2688.248-.2913h4.7327c.1406.0225.248.1443.248.2913v.0037c0 .1629-.1321.295-.295.295h-4.6387c-.163 0-.295-.1321-.295-.295z"/><path d="m16.1427 11.6768c-.3035-.0158-.6071.0284-.8936.1301-.2864.1017-.55.2588-.7756.4624-.2257.2036-.409.4497-.5395.7242s-.2055.572-.2209.8756l-.9987-.0507c.022-.4348.1296-.861.3164-1.2542.1869-.3932.4495-.7457.7728-1.0374.3232-.2916.7008-.5167 1.111-.6623.4103-.1456.8453-.2089 1.2801-.1863z"/></g></svg>
