<svg viewBox="0 0 33 32" xmlns="http://www.w3.org/2000/svg"><path d="m7.78255 7.44373v7.43067l9.40855 10.3558 8.5613-8.1058-9.677-9.68067zm-.74372-.74372c.1641-.1641.38666-.25628.61872-.25628h8.47445c.2254.00313.4412.09135.6044.24689l.0086.00827 9.8008 9.80471c.0822.081.1476.1775.1923.2839.0452.1074.0685.2228.0685.3394 0 .1165-.0233.2319-.0685.3393-.0452.1075-.1114.2048-.1947.2863l-.0058.0056-8.7358 8.271c-.0797.0794-.1741.1428-.278.1865-.1074.0452-.2228.0685-.3394.0685-.1165 0-.2319-.0233-.3394-.0685-.1074-.0453-.2047-.1115-.2862-.1948l-.0064-.0066-9.55089-10.5123c-.1377-.1595-.21507-.3622-.21888-.5729l-.00016-.009.00008-7.60127c0-.23207.09219-.45463.25628-.61872z"/><path d="m12.0675 10.2787c-.5274 0-.955.4276-.955.955 0 .5275.4276.955.955.955.5275 0 .955-.4275.955-.955 0-.5274-.4275-.955-.955-.955zm-1.955.955c0-1.0797.8753-1.95495 1.955-1.95495 1.0798 0 1.955.87525 1.955 1.95495 0 1.0798-.8752 1.955-1.955 1.955-1.0797 0-1.955-.8752-1.955-1.955z"/></svg>
