<svg  viewBox="0 0 32 32" xmlns="http://www.w3.org/2000/svg"><g clip-rule="evenodd" fill-rule="evenodd"><path d="m9.28021 10.2012h13.42089l-.7787 14.0167c-.0042.2215-.0923.4334-.2468.5927-.1585.1634-.3744.2586-.6018.2654l-.0075.0002h-10.1325c-.2321 0-.4547-.0922-.6188-.2562-.1601-.1602-.2518-.376-.2561-.602zm1.05709 1 .7153 12.875h9.8761l.7153-12.875z"/><path d="m9.4647 9.32252-.18706.87498h13.44476l-.1871-.87498zm-.22441-1c-.13518-.0068-.26962.02669-.38609.09658-.12561.07536-.2237.18907-.27981.32438l-.01753.04226-.36936 1.72766v.0529c0 .2419.13993.4115.26537.5003.12777.0905.27843.1309.42213.1309h14.25c.1437 0 .2944-.0404.4221-.1309.1255-.0888.2654-.2584.2654-.5003v-.0529l-.3694-1.72766-.0175-.04226c-.0561-.13531-.1542-.24902-.2798-.32438-.1165-.06989-.2509-.10338-.3861-.09658z"/><path d="m12.5 22.165v-9.375h1v9.375z"/><path d="m15.5 22.165v-9.375h1v9.375z"/><path d="m18.5 22.165v-9.375h1v9.375z"/><path d="m14.1487 6.96375v1.85874h-1v-1.98374c0-.23207.0922-.45463.2563-.61872.1641-.1641.3867-.25628.6187-.25628h3.9525c.2321 0 .4547.09218.6188.25628.1641.16409.2562.38665.2562.61872v1.98374h-1v-1.85874z"/></g></svg>
