<svg fill="none" height="32" viewBox="0 0 32 32" width="32" xmlns="http://www.w3.org/2000/svg"><g clip-rule="evenodd" fill="#fff" fill-rule="evenodd"><path d="m10.8239 13.1611c1.2054-1.2104 2.9501-2.3707 5.1864-2.3151 2.2255.0552 3.949 1.2316 5.1352 2.4278 1.1875 1.1977 1.8741 2.4521 2.0319 2.7497l.0083.0156.0069.0163c.0305.0714.0462.1482.0462.2259 0 .0749-.0146.149-.043.2183-1.1386 2.907-4.1715 5.5604-7.9573 5.228l-.0017-.0002c-1.7664-.1624-3.3069-1.3421-4.4206-2.4895-1.12507-1.1593-1.88038-2.3545-2.07172-2.6674l-.00547-.009h.00012c-.04974-.0862-.07592-.1839-.07592-.2834 0-.0961.02445-.1906.07098-.2746.17974-.3391.88833-1.6362 2.08971-2.8424zm-1.28582 3.1074c.26497.4189.93552 1.4198 1.87612 2.389 1.0744 1.107 2.4367 2.1053 3.8981 2.24 3.2862.2881 5.9979-1.9895 7.0664-4.5991-.2218-.402-.839-1.4434-1.825-2.4378-1.1052-1.1147-2.6364-2.1337-4.5641-2.1816-1.9168-.0475-3.4534.9437-4.5753 2.0701-.9995 1.0036-1.63567 2.0815-1.87622 2.5194z"/><path d="m15.9062 14.4948c-.9624 0-1.7427.7802-1.7427 1.7427 0 .9624.7803 1.7427 1.7427 1.7427.9625 0 1.7428-.7803 1.7428-1.7427 0-.9625-.7803-1.7427-1.7428-1.7427zm-2.576 1.7427c0-1.4227 1.1533-2.5761 2.576-2.5761 1.4228 0 2.5761 1.1534 2.5761 2.5761s-1.1533 2.576-2.5761 2.576c-1.4227 0-2.576-1.1533-2.576-2.576z"/></g></svg>