<svg viewBox="0 0 33 32" xmlns="http://www.w3.org/2000/svg"><path d="m14.5613 7.33502c-3.4725 0-6.2875 2.81498-6.2875 6.28748s2.815 6.2875 6.2875 6.2875 6.2875-2.815 6.2875-6.2875-2.815-6.28748-6.2875-6.28748zm-7.2875 6.28748c0-4.02475 3.2627-7.28748 7.2875-7.28748s7.2875 3.26273 7.2875 7.28748c0 4.0248-3.2627 7.2875-7.2875 7.2875s-7.2875-3.2627-7.2875-7.2875z"/><path d="m25.0049 25.6839-6.21-6.735.7352-.6778 6.21 6.735z"/><path d="m14.1813 17.47v-7.69498h1v7.69498z"/><path d="m18.5288 14.1225h-7.6913v-1h7.6913z"/></svg>
