<svg viewBox="0 0 32 32" xmlns="http://www.w3.org/2000/svg"><path d="m21.523 19.1023c-.5511 0-.9993-.4486-.9993-.9997s.4483-.9993.9993-.9993c.5511 0 .9993.4483.9993.9993.0001.5511-.4482.9997-.9993.9997zm-11.046 0c-.5511 0-.9993-.4486-.9993-.9997s.4482-.9993.9993-.9993.9993.4483.9993.9993c0 .5511-.4483.9997-.9993.9997zm11.4045-6.02 1.9973-3.45921c.055-.09546.0698-.20884.0413-.31524-.0285-.10641-.0981-.19717-.1934-.25236-.0955-.05496-.2088-.06982-.3152-.04131-.1065.02852-.1972.09808-.2524.19341l-2.0223 3.50301c-1.5466-.7058-3.2835-1.0989-5.1368-1.0989s-3.5902.3931-5.1367 1.0989l-2.0223-3.50301c-.05521-.09534-.14598-.1649-.2524-.19341-.10643-.02852-.21982-.01366-.3153.04131-.0954.05514-.16501.14589-.19353.25232s-.01362.21983.04143.31528l1.9973 3.45921c-3.4296 1.8653-5.7753 5.3375-6.1185 9.4396h24c-.3435-4.1021-2.6892-7.5743-6.1185-9.4396z"/></svg>
