<svg viewBox="0 0 33 32" xmlns="http://www.w3.org/2000/svg"><path d="m16.5 4c-3.79 0-7.16899 1.757-9.36799 4.501l3.95299 6.848c.159-1.3244.7978-2.5446 1.7956-3.4299.9979-.8852 2.2855-1.3741 3.6194-1.3741h10.691c-1.0056-1.97037-2.5363-3.62442-4.4229-4.77943-1.8867-1.15502-4.0559-1.76604-6.2681-1.76557zm-10.06899 5.47c-1.26371 1.9432-1.93465 4.2121-1.931 6.53 0 6.012 4.42001 10.991 10.18899 11.864l3.953-6.847c-1.2263.5244-2.6023.5809-3.8674.1589-1.2652-.422-2.3317-1.2933-2.9976-2.4489zm13.34199 2.166c1.0681.7991 1.8057 1.9625 2.0729 3.2693.2673 1.3069.0457 2.6664-.6229 3.8207l.002.001h-.002l-5.344 9.257c.206.01.413.016.621.016 6.627 0 12-5.373 12-12 0-1.54-.29-3.011-.818-4.364zm-3.273 8.728c-1.1574 0-2.2674-.4598-3.0858-1.2782s-1.2782-1.9284-1.2782-3.0858.4598-2.2674 1.2782-3.0858 1.9284-1.2782 3.0858-1.2782 2.2674.4598 3.0858 1.2782 1.2782 1.9284 1.2782 3.0858-.4598 2.2674-1.2782 3.0858-1.9284 1.2782-3.0858 1.2782z"/></svg>
