<svg viewBox="0 0 32 33" xmlns="http://www.w3.org/2000/svg"><path d="m25.86 22.228c.0933 0 .1767.04.25.12.0667.0866.1.17.1.25s-.0367.19-.11.33l-.32.46-.43.53-.44.5c-.14.1666-.2667.3066-.38.42l-.22.23c-.3867.3533-.8333.7-1.34 1.04s-1.04.6433-1.6.91c-.5733.2666-1.1533.48-1.74.64s-1.1433.24-1.67.24c-.6 0-1.1633-.0934-1.69-.28-.5333-.1867-1.0267-.4467-1.48-.78-.4533-.3334-.86-.7234-1.22-1.17-.3533-.44-.66-.92-.92-1.44-.2533-.5134-.4467-1.0467-.58-1.6-.1333-.5534-.2-1.11-.2-1.67 0-.6667.1067-1.32.32-1.96.22-.6467.51-1.2467.87-1.8.0933.6333.2767 1.2233.55 1.77.2733.5466.6133 1.0466 1.02 1.5.4.4533.86.8566 1.38 1.21.52.36 1.0667.66 1.64.9s1.1633.4266 1.77.56c.6133.1333 1.2133.2 1.8.2.7467 0 1.4733-.08 2.18-.24.7067-.1534 1.3933-.3934 2.06-.72l.2-.1zm-15.5-1.27c0 .7333.09 1.45.27 2.15.18.7066.44 1.3833.78 2.03.34.64.7533 1.23 1.24 1.77.4933.5466 1.0467 1.0133 1.66 1.4-.98-.1334-1.9133-.38-2.8-.74-.8867-.3667-1.71333-.8234-2.48-1.37-.76667-.5534-1.46-1.1867-2.08-1.9-.61333-.7134-1.14-1.49-1.58-2.33s-.77667-1.7267-1.01-2.66c-.24-.9334-.36-1.8934-.36-2.88 0-.54.10667-1.0367.32-1.49.20667-.4534.48333-.8634.83-1.23.35333-.3667.75333-.6867 1.2-.96.44-.2667.89-.4867 1.35-.66.49333-.18.99333-.31 1.5-.39.52-.08 1.0367-.12 1.55-.12.4667 0 .94.0333 1.42.1.48.08.9467.1966 1.4.35.4533.1533.8933.3433 1.32.57.42.2333.8067.51 1.16.83-.2333 0-.4667.0233-.7.07-.22.0466-.4367.1233-.65.23v-.02c-.42.1866-.82.4333-1.2.74-.38.3066-.73.6533-1.05 1.04-.32.3866-.61.8066-.87 1.26-.2533.4466-.47.91-.65 1.39-.18.4733-.32.9533-.42 1.44-.1.48-.15.94-.15 1.38zm5.6-16.53002c1.1333 0 2.2433.13 3.33.39 1.0867.25333 2.11.63667 3.07 1.15.9533.51333 1.8267 1.15667 2.62 1.93.7867.77333 1.4467 1.67333 1.98 2.70002.3267.6266.58 1.28.76 1.96.1867.6666.28 1.36.28 2.08 0 .5933-.0767 1.16-.23 1.7-.16.5333-.39 1.0266-.69 1.48-.3.4533-.6667.86-1.1 1.22-.4267.3533-.91.6466-1.45.88-.36.16-.73.28-1.11.36-.3867.0866-.7733.13-1.16.13-.28 0-.6033-.01-.97-.03-.36-.02-.7267-.06-1.1-.12-.3667-.0667-.7167-.16-1.05-.28-.3333-.1267-.6133-.2934-.84-.5-.08-.06-.1567-.14-.23-.24-.0667-.1067-.1-.2167-.1-.33 0-.1.0533-.2167.16-.35.1067-.1334.2233-.3.35-.5.1333-.1867.2533-.4134.36-.68.1067-.2667.16-.5834.16-.95 0-.7067-.1333-1.36-.4-1.96-.2667-.6067-.62-1.1534-1.06-1.64-.44-.4934-.9467-.92-1.52-1.28-.5733-.3667-1.17-.6634-1.79-.89-.56-.2-1.1333-.3467-1.72-.44-.58-.0934-1.1667-.14-1.76-.14-1.03333 0-2.05333.15-3.06.45s-1.92333.7633-2.75 1.39c.47333-1.16 1.07667-2.20335 1.81-3.13002.73333-.92 1.57333-1.70333 2.52-2.35.94-.64667 1.9733-1.14333 3.1-1.49 1.1333-.34667 2.3267-.52 3.58-.52z"/></svg>
