<svg viewBox="0 0 32 33" xmlns="http://www.w3.org/2000/svg"><path d="m28 4.42798h-24v24.00002h24zm-10.435 14.99612h-3.671v-5.9923h3.671v.9987h-2.5372v1.4487h2.3393v.9987h-2.3393v1.5475h2.5372zm3.2121-3.473c1.6105.3869 1.6915.6478 1.6915 1.8445 0 1.1336-.3329 1.7185-2.1053 1.7185-.6839 0-1.4757-.171-1.8716-.3599l.198-.8908c.5578.171 1.0977.279 1.6915.279.8188 0 .9538-.171.9538-.7468 0-.6659-.018-.7198-1.0977-.9537-1.4487-.3239-1.6466-.6028-1.6466-1.8715 0-1.0887.4948-1.6286 2.0154-1.6286.5219 0 1.1517.063 1.7456.198l-.126.9537c-.4949-.108-1.0797-.18-1.6015-.18-.7648 0-.8998.162-.8998.6839 0 .6838.018.7018 1.0527.9537zm5.2815-1.4846c-1.0617 0-1.5026.18-1.5026 1.0978v.5578c.3149-.108.6839-.162 1.0708-.162 1.0886 0 1.5295.4499 1.5295 1.4846v.4319c0 .9357-.4319 1.6374-1.8445 1.6374-1.5476 0-1.8535-.6837-1.8535-1.7184v-2.1864c0-1.5836.8458-2.0874 2.4834-2.0874.3329 0 .7647.045 1.0347.1079l-.072.9178c-.2609-.054-.6568-.081-.8458-.081zm0 3.0052c0-.4318-.2069-.5668-.6028-.5668-.3239 0-.6479.0809-.8998.1889v.8188c0 .4948.1889.6568.7559.6568.5667 0 .7467-.198.7467-.6568z"/></svg>
