<svg viewBox="0 0 32 32" xmlns="http://www.w3.org/2000/svg"><path d="m11.2561 13.673 4.559-2.632c.056-.0322.1194-.0491.184-.0491s.128.0169.184.0491l4.559 2.632c.0561.0325.1026.0792.1349.1353.0323.0562.0492.1199.0491.1847v5.263c-.0001.0646-.0172.1281-.0495.184-.0323.056-.0786.1025-.1345.135l-4.559 2.632c-.056.0322-.1194.0491-.184.0491s-.128-.0169-.184-.0491l-4.559-2.632c-.056-.0325-.1026-.0792-.1349-.1353-.0323-.0562-.0492-.1199-.0491-.1847v-5.262c0-.0648.017-.1284.0493-.1846.0323-.0561.0787-.1028.1347-.1354zm16.595 2.398-5.446-9.475c-.198-.343-.564-.596-.96-.596h-10.891c-.396 0-.76198.253-.95998.596l-5.446 9.454c-.09707.1701-.14812.3626-.14812.5585s.05105.3884.14812.5585l5.447 9.398c.197.342.56298.517.95898.517h10.893c.395 0 .76-.17.959-.512l5.446-9.413c.097-.1645.1482-.352.1482-.543s-.0512-.3785-.1482-.543m-4.51 4.556c-.0018.0692-.0216.1367-.0574.1959-.0357.0593-.0862.1082-.1466.1421l-6.939 4.002c-.0597.0341-.1272.0521-.196.0521-.0687 0-.1363-.018-.196-.0521l-6.94298-4.002c-.06052-.0338-.11124-.0827-.14717-.1419-.03594-.0593-.05587-.1268-.05783-.1961v-8.006c0-.14.083-.269.204-.338l6.93598-4.002c.12-.07.272-.07.392 0l6.943 4.003c.0607.0336.1116.0825.1478.1417.0361.0593.0562.1269.0582.1963z"/></svg>
