<svg viewBox="0 0 33 33" xmlns="http://www.w3.org/2000/svg"><path d="m24.9518 7.84436c-.7322-.75106-1.568-1.39356-2.482-1.908-1.026-.54-2.872-1.444-5.493-1.505-.734-.017-1.457.03-2.174.144-.72.114-1.398.292-2.118.56-1.017.377-1.996.975-2.574 1.554.583-.349 1.476-.733 2.55-.992 1.2217-.28727 2.4864-.34391 3.729-.167 2.341.34 4.178 1.381 5.48 2.625.4984.47163.9346 1.00494 1.298 1.587 1.468 2.38204 1.33 5.37604.184 7.14204-.85 1.312-2.67 2.544-4.37 2.53-.583-.023-1.438-.152-2.25-.566-2.629-1.343-3.021-4.688-1.118-6.306-.632-.136-1.82.13-2.646 1.363-.742 1.107-.7 2.816-.242 4.028-.293-.5976-.492-1.2368-.59-1.895-.191-1.2962-.0478-2.6197.416-3.845.3268-.8719.7996-1.6817 1.398-2.39504.896-1.069 1.908-1.72 2.75-2.005-.54-.471-1.411-.738-2.421-.767-1.469-.044-3.452.434-5.07904 1.783-.808.66989-1.47896 1.48954-1.976 2.41404-.455.836-.691 1.659-.697 1.678.122-1.445.704-2.99404 1.248-4.05504-.79.413-1.827 1.66804-2.41 3.04204-.77 1.881-1.065 4.119-.725 6.5.966 5.668 5.90004 9.982 11.84304 9.982 6.637 0 12.017-5.38 12.017-12.015.0028-1.5831-.3094-3.151-.9185-4.6122-.6092-1.4612-1.503-2.78656-2.6295-3.89884z"/></svg>
