<svg viewBox="0 0 32 33" xmlns="http://www.w3.org/2000/svg"><path d="m26.6063 15.0667-10.0598-10.05905c-.1378-.13789-.3014-.24728-.4815-.32191s-.3732-.11305-.5681-.11305c-.195 0-.388.03842-.5681.11305s-.3437.18402-.4815.32191l-2.0882 2.08919 2.6493 2.64935c.3115-.10578.6464-.1223.9667-.04768.3204.07462.6135.2374.8462.46989.234.2343.3973.5296.4713.8523.074.3226.0557.6596-.0528.9724l2.5543 2.5536c.3129-.1087.65-.127.9727-.0529.3228.0742.6182.2378.8522.4721.164.1639.294.3585.3828.5727.0887.2142.1344.4438.1344.6756 0 .2319-.0457.4614-.1344.6756-.0888.2142-.2188.4088-.3828.5727-.3314.3312-.7808.5172-1.2493.5172s-.9179-.186-1.2493-.5172c-.2463-.2466-.414-.5606-.4822-.9023-.0682-.3418-.0337-.6961.099-1.0183l-2.382-2.3813v6.2678c.2514.1242.4696.3065.6365.5318.167.2253.2778.4872.3234.7639s.0246.5603-.0612.8272c-.0859.267-.2341.5097-.4323.708-.164.1639-.3586.294-.5728.3827s-.4437.1344-.6756.1344c-.2318 0-.4614-.0457-.6756-.1344s-.4088-.2188-.5727-.3827c-.164-.164-.2941-.3586-.3828-.5728-.0888-.2142-.1345-.4438-.1345-.6757s.0457-.4615.1345-.6757c.0887-.2142.2188-.4088.3828-.5727.1652-.1656.3615-.2967.5777-.3859v-6.3255c-.2153-.0887-.4109-.219-.5757-.3835-.1647-.1646-.2954-.36-.3844-.5751-.089-.2152-.1346-.4458-.1342-.6786.0004-.2329.0468-.4633.1365-.6782l-2.6123-2.61272-6.89839 6.89672c-.27799.2785-.43411.6559-.43411 1.0494 0 .3936.15612.771.43411 1.0495l10.06029 10.0603c.2785.2779.6559.434 1.0494.434.3934 0 .7708-.1561 1.0493-.434l10.0132-10.0131c.278-.2786.4341-.656.4341-1.0495s-.1561-.771-.4341-1.0495z"/></svg>
