<svg fill="none" viewBox="0 0 32 33" xmlns="http://www.w3.org/2000/svg" xmlns:xlink="http://www.w3.org/1999/xlink"><clipPath id="a"><path d="m4 5.42798h24v21.4433h-24z"/></clipPath><g clip-path="url(#a)"><path d="m5.81443 23.806 1.05842 1.8282c.21993.3848.53608.6872.90722.9072l3.78003-6.543h-7.5601c0 .4261.10997.8522.3299 1.2371z" fill="#0066da"/><path d="m16 12.3008-3.7801-6.54293c-.3711.21993-.6873.52234-.9072.90722l-6.9828 12.09621c-.21589.3766-.32961.8031-.3299 1.2371h7.5601z" fill="#00ac47"/><path d="m24.2199 26.5414c.3712-.22.6873-.5224.9073-.9072l.4398-.7561 2.1031-3.6426c.2199-.3849.3299-.811.3299-1.2371h-7.5607l1.6088 3.1615z" fill="#ea4335"/><path d="m16 12.3008 3.7801-6.54292c-.3712-.21994-.7973-.3299-1.2372-.3299h-5.0859c-.4398 0-.8659.12371-1.2371.3299z" fill="#00832d"/><path d="m20.4399 19.9984h-8.8798l-3.78002 6.543c.37113.2199.79725.3299 1.23711.3299h13.96561c.4399 0 .866-.1237 1.2371-.3299z" fill="#2684fc"/><path d="m24.1787 12.7132-3.4914-6.04811c-.2199-.38488-.5361-.68729-.9072-.90722l-3.7801 6.54293 4.4399 7.6976h7.5464c0-.4261-.11-.8522-.3299-1.2371z" fill="#ffba00"/></g></svg>
