<svg viewBox="0 0 33 32" xmlns="http://www.w3.org/2000/svg"><path d="m16.8636 7.001c-.1256-.00021-.2512.00714-.376.022-.6046.09895-1.1615.38915-1.589.828-.562.58-.82 1.115-.773 1.943-.01.264.193 1.023.272 1.274 1.115 3.546 2.09 6.75 3.26 10.279.08.246.168.486.267.72.02.047.035.046.048-.004.077-.297.174-.612.29-.945.894-2.576 1.772-5.14 2.633-7.696.0247-.07.0261-.1461.004-.217-.4742-1.5312-.9709-3.0554-1.49-4.572-.1609-.36035-.4016-.67939-.704-.933-.55-.46-1.166-.693-1.842-.699zm9.078.117c-.6158-.06638-1.236.07833-1.7588.41043-.5229.3321-.9175.83191-1.1192 1.41757l-4.576 13.289c-.236.6856-.19 1.4368.1278 2.0885.3179.6517.8816 1.1504 1.5672 1.3865l.12.04c.6855.2361 1.4366.1902 2.0883-.1274.6516-.3177 1.1504-.8812 1.3867-1.5666l4.573-13.288c.117-.3395.166-.6988.1442-1.05725-.0219-.35846-.1142-.7091-.2716-1.0319-.1574-.32279-.3768-.61141-.6458-.84937s-.5822-.4206-.9218-.53748c-.233-.1-.506-.124-.716-.174zm-9.066 1.303c.1864-.00499.3719.02741.5456.0953s.332.16988.4656.29996.2398.2856.3123.4574c.0725.17179.1099.35637.1099.54284 0 .1865-.0374.371-.1099.5428s-.1787.3274-.3123.4574c-.1336.1301-.2919.2321-.4656.3s-.3592.1003-.5456.0953c-.37 0-.7248-.147-.9864-.4086s-.4086-.6164-.4086-.9864c0-.36998.147-.7248.4086-.98641.2616-.26162.6164-.40959.9864-.40959zm8.809.07c.1872-.005.3735.02755.5479.09573.1744.06819.3334.17062.4676.30126.1342.13063.2408.28682.3136.45935s.1104.3579.1104.54516c0 .1873-.0376.3726-.1104.5452-.0728.1725-.1794.3287-.3136.4593s-.2932.2331-.4676.3013c-.1744.0681-.3607.1007-.5479.0957-.3652-.0098-.7122-.1617-.9671-.4235-.2548-.2617-.3974-.6126-.3974-.978 0-.36535.1426-.71627.3974-.97804.2549-.26177.6019-.4137.9671-.42346zm-15.76499 3.575c-.15716.0044-.3137.0218-.468.052-.49554.0798-.95875.2971-1.337.627-.26947.2276-.49021.5073-.64899.8222-.15877.315-.25231.6588-.27501 1.0108-.01841.2156-.01841.4324 0 .648.04596.5682.2832 1.104.673 1.52.221.238.465.454.732.648 3.04299 2.21 6.07999 4.43 9.10799 6.664.049.0357.1021.0656.158.089.03-.043.032-.098.007-.167-.0943-.3586-.2-.7141-.317-1.066-.6862-2.0795-1.3595-4.1632-2.02-6.251-.1565-.4954-.3222-.9878-.497-1.477-.967-.849-2.078-1.6-3.023-2.302-.3994-.33-.8613-.5759-1.358-.723-.2383-.0693-.4859-.102-.73399-.095zm.02 1.424c.37079 0 .72639.1473.98849.4095.2622.2621.4095.6177.4095.9885s-.1473.7264-.4095.9885c-.2621.2622-.6177.4095-.98849.4095-.37077 0-.72636-.1473-.98853-.4095-.26218-.2621-.40947-.6177-.40947-.9885s.14729-.7264.40947-.9885c.26217-.2622.61776-.4095.98853-.4095zm-2.458 6.792c-.733-.006-1.375.202-1.927.622-.46633.3668-.79995.876-.95 1.45-.0954.3379-.12594.6908-.09 1.04.05477.5888.29857 1.1442.695 1.583.664.578 1.26.85 2 .945 1.42-.005 2.83999-.012 4.26199-.02h.418c2.277-.003 4.513-.002 6.706.003.148.005.28.003.392-.01.06-.005.091-.031.092-.077-.267-.2314-.5453-.4493-.834-.653-2.2033-1.5867-4.3934-3.1918-6.57-4.815-.0404-.0302-.0895-.0467-.14-.047-1.34-.003-2.69099-.011-4.05399-.021zm-.19 1.418c.1872-.005.3735.0276.54791.0957.17441.0682.3334.1707.46757.3013s.24081.2868.31363.4593c.07282.1726.11033.3579.11033.5452s-.03751.3726-.11033.5452c-.07282.1725-.17946.3287-.31363.4593-.13417.1307-.29316.2331-.46757.3013s-.36071.1007-.54791.0957c-.36522-.0098-.7122-.1617-.96707-.4235-.25487-.2617-.39749-.6126-.39749-.978s.14262-.7163.39749-.978c.25487-.2618.60185-.4137.96707-.4235zm13.87399.002c.3713 0 .7274.1475.99.4101.2625.2625.41.6186.41.9899s-.1475.7274-.41.9899c-.2626.2626-.6187.4101-.99.4101s-.7274-.1475-.9899-.4101c-.2626-.2625-.4101-.6186-.4101-.9899s.1475-.7274.4101-.9899c.2625-.2626.6186-.4101.9899-.4101z"/></svg>
