<svg viewBox="0 0 33 32" xmlns="http://www.w3.org/2000/svg"><path d="m16.071 15.513h-11.571c.00039.6862.13611 1.3655.39939 1.9992.26328.6336.64895 1.2091 1.13493 1.6935.48599.4844 1.06273.8682 1.69723 1.1294s1.31429.3947 2.00045.3929h2.13v2.057c0 1.3828.5492 2.7089 1.5267 3.6869.9776.9779 2.3035 1.5276 3.6863 1.5281v-11.482c0-.2665-.1059-.5222-.2944-.7106-.1884-.1885-.4441-.2944-.7106-.2944zm5.723-5.756h-11.558c.0003 1.3829.5498 2.7091 1.5278 3.6869s2.3043 1.5271 3.6872 1.5271h2.129v2.058c.0011 1.3827.5509 2.7084 1.5287 3.686.9778.9777 2.3036 1.5272 3.6863 1.528v-11.485c0-.2655-.1055-.5201-.2932-.7078-.1877-.18774-.4423-.2932-.7078-.2932zm5.719-5.757h-11.558c0 1.3831.5494 2.70956 1.5274 3.68756s2.3045 1.52744 3.6876 1.52744h2.129v2.057c.0011 1.38.549 2.7033 1.5239 3.68.9749.9768 2.2971 1.5273 3.6771 1.531v-11.478c.0011-.26377-.102-.5173-.2868-.70549s-.4365-.29582-.7002-.29951z"/></svg>
