<svg viewBox="0 0 32 33" xmlns="http://www.w3.org/2000/svg"><path d="m5.49171 10.707c-2.07969 2.9892-1.82079 6.8781-.23209 10.0541.03777.0762.07736.1511.11635.226.02498.0475.04843.0963.07432.1432.01462.028.03106.0554.04629.0822.02711.0506.05483.0987.08285.148.04934.0871.0999.1736.15168.2601.02863.0476.05696.0951.0865.1426.05726.0926.11605.184.17605.2753.02498.039.04934.078.07492.1158.08285.1236.16752.2467.25493.3679.00217.0031.00455.0067.0073.0097.01372.0195.02894.0384.04295.0579.07553.1042.15351.2071.23239.3088.02894.0372.05818.0744.08742.1115.07036.0884.14193.1761.21473.2638.0271.0329.05451.0658.08193.0981.09777.1151.19736.2296.29909.3417.00187.0017.00427.0043.00608.0061.00427.0048.00792.0079.01157.0128.09929.1084.20102.2144.30398.3204.03198.0329.06457.0658.09746.0981.0798.0804.16082.1596.24275.2381.0332.0317.0661.064.0993.0945.10934.1029.2199.204.3326.3027.00187.0018.00333.0031.00518.0043.01918.017.03898.0329.05787.0493.09929.0859.20041.1712.30213.2553.04142.0335.08346.0664.12519.0999.08315.0664.16721.1322.25188.1967.04477.0341.08955.0683.13463.1024.0935.0688.18762.1364.28264.2028.03472.025.06823.0494.10295.0731.00973.0067.01859.0134.02832.0201.09016.0622.18244.1219.27444.1816.03959.0262.07891.0536.11881.0792.1413.0895.2848.1778.4297.2631.0393.0226.0792.0445.1188.067.1066.0615.2138.1219.3226.1809.0588.0317.1191.0616.1785.092.0767.0402.1529.081.2308.12.0177.0086.036.0171.0533.0256.0314.0152.0631.0299.0944.0457.121.0579.2428.1145.3659.1693.0262.0116.0514.0232.0773.0348.141.0615.2833.1206.4267.1772.0345.014.0692.0274.1039.0408.1328.0512.2674.1018.4027.1493.017.0061.0335.0116.0505.0176.1484.0518.2982.0999.449.1468.0359.0104.0722.022.1084.0323.1535.0463.3052.1018.4636.131 10.0578 1.8342 12.9794-6.0442 12.9794-6.0442-2.4537 3.1968-6.8092 4.0399-10.9359 3.1012-.1563-.0353-.3079-.0841-.4605-.1292-.0387-.0115-.0768-.0231-.1149-.0347-.1489-.0457-.2966-.0938-.4434-.1443-.0202-.0073-.0405-.0147-.061-.022-.1315-.0463-.2616-.095-.391-.145-.0366-.0146-.0731-.0286-.1097-.0432-.1419-.0561-.2829-.1145-.4221-.1754-.0287-.0122-.0561-.025-.0844-.0372-.1197-.0542-.2382-.109-.3561-.1657-.0341-.0164-.0682-.0323-.1029-.0493-.0926-.0452-.1842-.0934-.2755-.1403-.0611-.0322-.1232-.0626-.1839-.0963-.1115-.0596-.221-.1217-.3301-.1851-.0369-.0207-.0743-.0407-.1115-.0621-.145-.0854-.2882-.1737-.4299-.2633-.0392-.0249-.0774-.0516-.116-.0773-.1028-.0664-.2051-.134-.3059-.2034-.0335-.0227-.0657-.0469-.0986-.0693-.0973-.0689-.1936-.1385-.2892-.2091-.0434-.0322-.0861-.0647-.1282-.0968-.0876-.0672-.1747-.1348-.261-.2042-.039-.031-.078-.0621-.1164-.0932-.1096-.0901-.2181-.1809-.325-.2741-.0112-.0097-.0234-.0195-.0356-.0298-.1157-.1017-.2293-.2059-.3417-.3107-.0326-.031-.0643-.0615-.09628-.0926-.08315-.0792-.16508-.159-.24549-.2406-.03229-.0323-.06457-.064-.09625-.0962-.10234-.1048-.20285-.2108-.30124-.3186-.00486-.0055-.01004-.0104-.0149-.0159-.10417-.1139-.2059-.2302-.30551-.3478-.0271-.0323-.0533-.0633-.0801-.095-.07432-.0896-.14803-.1803-.21991-.2717-.02695-.0329-.0539-.0666-.08059-.1006-.08659-.1122-.17117-.2243-.25401-.3381-2.2911-3.1251-3.11417-7.4354-1.28299-10.97527"/><path d="m11.9475 8.18873c-1.504 2.16437-1.4224 5.06157-.2492 7.35067.1968.3837.4179.7559.6652 1.1105.2254.3228.4752.7072.7743.9667.1084.1194.2217.2358.3374.3503.0292.0298.0591.0585.089.0877.1123.109.2266.2163.3447.3204.0049.0037.0092.0085.014.0122.0013.0013.0025.0018.0034.0031.1306.1146.2656.2248.4026.3332.0305.0232.0607.0476.0914.0713.1374.1054.2775.209.4212.3076.0043.0032.008.0061.0122.0092.0634.0438.128.0846.1922.1267.0308.0201.06.0414.0911.0603.1026.0658.2065.1297.3122.1913.0149.0091.0295.017.0442.0255.091.0524.1833.1042.2759.1542.0323.0182.0652.0341.0981.0511.064.0335.1279.0676.1931.0999.0097.0049.0198.0092.0292.0134.1325.0652.2662.128.4027.1877.0292.0128.0594.0243.0889.0365.1091.0463.2193.0914.3302.134.0469.0177.0944.0348.1413.0518.1005.0372.2013.0713.3031.1054.0459.0146.091.0298.137.0439.1447.045.2875.1017.4383.1267 7.7656 1.2865 9.5583-4.6924 9.5583-4.6924-1.6161 2.3276-4.7457 3.4381-8.0854 2.5713-.1484-.039-.2945-.0817-.4398-.1274-.0445-.0134-.0881-.028-.1322-.0426-.1033-.0335-.2059-.0688-.3076-.106-.0466-.0171-.0932-.0341-.1389-.0518-.1115-.0426-.2218-.0871-.3311-.1334-.0299-.0128-.06-.0243-.0893-.0377-.137-.0597-.272-.1225-.405-.1883-.0686-.0335-.1359-.0688-.2032-.1035-.039-.0201-.0783-.0402-.1173-.0603-.0865-.0469-.1724-.0957-.257-.145-.0201-.0116-.0412-.0226-.0616-.0347-.105-.0616-.2086-.1249-.3113-.1901-.0316-.0201-.0621-.042-.0938-.0627-.0676-.0439-.1352-.0884-.2016-.1335-.1432-.0986-.2823-.2022-.4197-.307-.0317-.025-.0634-.0493-.0944-.0743-1.4619-1.1542-2.6207-2.7314-3.1716-4.5199-.5774-1.8549-.4528-3.93708.5475-5.62678"/><path d="m17.3771 6.30715c-.8866 1.30482-.9737 2.92528-.3585 4.36645.6488 1.5296 1.9783 2.7297 3.5299 3.2986.0639.0238.1279.0451.1928.067.0283.0085.0563.0183.085.0268.0913.0286.1821.0621.2765.0798 4.2879.8284 5.4509-2.2003 5.7605-2.6461-1.0188 1.4669-2.7309 1.8189-4.8316 1.3091-.1659-.0404-.3483-.1003-.5082-.157-.2051-.0731-.4072-.1564-.6036-.2507-.373-.1792-.7286-.3967-1.0582-.6458-1.8798-1.4262-3.0475-4.14711-1.8209-6.36303"/></svg>
