<svg viewBox="0 0 33 32" xmlns="http://www.w3.org/2000/svg"><path d="m17.1399 28.0002c-.321 0-.641-.0839-.922-.2469l-2.936-1.737c-.438-.2451-.224-.3321-.08-.3831.585-.2029.703-.25 1.328-.604.065-.037.151-.023.218.017l2.256 1.3391c.082.045.197.045.272 0l8.795-5.0761c.082-.047.134-.141.134-.238v-10.15c0-.099-.053-.192-.137-.242l-8.791-5.07195c-.081-.047-.189-.047-.271 0l-8.78896 5.07295c-.085.049-.139.145-.139.241v10.15c0 .097.054.1891.139.235l2.40896 1.392c1.307.654 2.108-.1159 2.108-.8899v-10.021c0-.1421.114-.2531.256-.2531h1.115c.139 0 .255.1121.255.2531v10.021c0 1.745-.95 2.7449-2.604 2.7449-.508 0-.909.0001-2.02596-.5509l-2.308-1.3271c-.57-.329-.922-.945-.922-1.604v-10.15c0-.659.353-1.27495.922-1.60295l8.79496-5.082c.557-.315 1.296-.315 1.848 0l8.794 5.082c.57.329.924.94395.924 1.60295v10.15c0 .659-.354 1.273-.924 1.604l-8.794 5.0781c-.28.163-.599.2469-.925.2469zm7.101-10.007c0-1.8999-1.284-2.406-3.987-2.763-2.731-.361-3.009-.5479-3.009-1.1869 0-.528.235-1.233 2.258-1.233 1.807 0 2.473.3889 2.747 1.6069.024.115.129.1991.247.1991h1.141c.071 0 .138-.0311.186-.0811.048-.054.074-.123.067-.196-.177-2.098-1.571-3.076-4.388-3.076-2.508 0-4.004 1.058-4.004 2.833 0 1.925 1.488 2.4571 3.895 2.6951 2.88.2819 3.103.703 3.103 1.269 0 .983-.789 1.4019-2.642 1.4019-2.327 0-2.839-.5839-3.011-1.7419-.02-.124-.126-.2151-.253-.2151h-1.137c-.141 0-.254.1121-.254.2531 0 1.482.806 3.248 4.655 3.248 2.788.0009 4.386-1.0961 4.386-3.0131z"/></svg>
