<svg viewBox="0 0 33 32" xmlns="http://www.w3.org/2000/svg"><path d="m16.5938 8.6358c-2.0663 0-3.6817.204-4.9221.5704.0309-.0277.0615-.0557.0918-.084.0374-.0375-.0507-.0625-.2285-.0684-.5335-.0175-1.8672.1436-2.9904.7051-1.273.599-4.118 3.7446-4.0432 3.9318.075.1872 1.4594 1.3458 1.8712 1.795.2621.2995 1.0485 2.9592 1.7599 2.51.189-.131.2656-.651.33-1.2931.0582.4975.1155 1.013.1934 1.4805.1123.7488 1.087 1.3474 1.1993 2.0587.1391 1.0138.7614 1.7234 1.9805 2.174.4847.6681 1.2382.3299 1.801.6347.8984.4867 1.9091.2617 2.92.2617 1.0108 0 1.984.186 2.92-.3007.576-.2995 1.32.0311 1.8087-.5802 1.2254-.4494 1.8319-1.1633 1.9727-2.1895.1123-.7113 1.0479-1.3099 1.1602-2.0587.0633-.3799.1102-.802.1582-1.2032.0568.4994.13.9042.291 1.0157.674.4493 1.4978-2.2104 1.7599-2.5099.4118-.4492 1.7963-1.6078 1.8712-1.795.0748-.1872-2.8074-3.3327-4.0803-3.9318-1.1231-.5615-2.4568-.7226-2.9903-.705-.167.0054-.2454.0287-.2247.0624-1.1748-.308-2.6728-.4805-4.6095-.4805zm.0293.5c2.2035 0 3.8486.2253 5.01.6153.1335.0449.2387.098.3593.1465.6901.715 1.6233 1.831 2.0138 3.1173.0246.081.0405.1658.0625.248.0003.0013-.0003.0028 0 .004v.0039c.0453.77.3158 1.4169.2305 1.9903-.1536.9982-.2285 1.9726-.373 2.84l-.002.0039v.0039c-.0289.1922-.218.4762-.4786.8067s-.5955.7024-.6817 1.248v.006l-.0019.0038c-.1006.733-.4207 1.1997-1.17 1.5821.1252-.4447.2051-1.055.2051-1.963.0374-1.1231.0766-1.5722-.8594-2.6954-.7184-.9236-1.704-1.5746-2.793-1.8985-.1111-.3899-.7217-.836-1.551-.836-.8285 0-1.4147.422-1.5352.8204-1.1098.3182-2.116.9759-2.8458 1.9141-.936 1.1232-.8594 1.6097-.8594 2.6955 0 .9037.0795 1.5135.2031 1.961-.7697-.385-1.1078-.857-1.207-1.5802v-.0097c-.0875-.5541-.4371-.9235-.7071-1.254s-.4626-.6166-.4903-.8008l-.002-.004v-.0038c-.1444-.8669-.2196-1.8406-.373-2.838v-.002c-.0853-.5734.1833-1.2203.2285-1.9903v.0156c.0131-.1437.0173-.241.0254-.371.3604-1.1587 1.1531-2.1726 1.8048-2.8752.2354-.11094.4774-.20746.7246-.289 1.1921-.3916 2.8593-.6154 5.0628-.6154zm-5.2092 3.805c-.4349.0033-.8509.1784-1.1572.4872-.30628.3089-.478.7263-.4777 1.1612.00009.2164.04281.4306.12571.6305.0829.1998.20439.3814.35749.5343.153.1529.3347.2742.5347.3568.2.0827.4142.1252.6306.125.1492-.0001.2978-.0205.4415-.0606.3487-.3747.7177-.7223 1.1113-1.041.0618-.1751.0935-.3593.0938-.545.0002-.2164-.0423-.4306-.125-.6306s-.2039-.3817-.3568-.5347c-.1529-.1531-.3345-.2746-.5343-.3575-.1999-.0829-.4141-.1256-.6305-.1257-.0045 0-.0091.0001-.0136.0001zm10.2973 0c-.4353.0028-.8517.1777-1.1584.4866-.3067.3088-.4787.7265-.4784 1.1618.0006.236.0519.4691.1504.6836.3125.2642.611.547.8945.8477.1922.076.397.1151.6036.1153.4366-.0002.8553-.1738 1.1641-.4825.3087-.3088.4822-.7275.4824-1.1641.0002-.2164-.0423-.4306-.125-.6306-.0826-.1999-.2039-.3816-.3568-.5347s-.3344-.2746-.5343-.3575c-.1998-.0829-.414-.1256-.6304-.1257-.0039 0-.0078.0001-.0117.0001zm-9.8715.4863c.109.0005.2133.0441.2902.1213.0768.0772.12.1817.1199.2907.0001.109-.043.2136-.1199.2908-.0768.0773-.1812.121-.2902.1214-.0541.0001-.1078-.0106-.1578-.0313-.05-.0206-.0955-.051-.1338-.0893-.0382-.0383-.0686-.0837-.0893-.1337s-.0313-.1037-.0313-.1578.0106-.1077.0313-.1578c.0207-.05.0511-.0954.0893-.1337.0383-.0383.0838-.0686.1338-.0893s.1037-.0313.1578-.0313zm9.471 0c.0541 0 .1077.0106.1578.0313.05.0206.0954.051.1337.0892.0383.0383.0687.0837.0894.1338.0207.05.0313.1036.0313.1577.0001.0541-.0106.1078-.0313.1578s-.051.0955-.0893.1338c-.0383.0382-.0837.0686-.1337.0893s-.1037.0313-.1578.0313c-.0541.0001-.1078-.0106-.1578-.0313-.05-.0206-.0955-.051-.1337-.0893-.0383-.0383-.0687-.0837-.0894-.1337s-.0313-.1037-.0313-.1578.0106-.1077.0313-.1578c.0207-.05.0511-.0954.0894-.1337.0382-.0383.0837-.0686.1337-.0893s.1036-.0313.1577-.0313zm-5.1095 1.4863c.0102-.0005.02.0008.0293.004.038.0117.0651.053.0753.1149.0103.0619.0029.1392-.0206.2151-.0116.0377-.0269.0739-.0449.1065-.018.0327-.0384.061-.06.0836-.0216.0225-.044.0387-.0659.0476-.0219.009-.0429.0105-.0617.0045-.0374-.0125-.0639-.0542-.0738-.116-.0098-.0618-.0023-.1387.0211-.214.0203-.066.0514-.1266.0881-.1715s.0766-.0713.1131-.0747zm.6719.0215c.0376-.0022.0793.0226.1172.0695.0379.047.0692.1127.0878.1845.0099.0382.0159.0769.0177.1141.0018.0371-.0006.0719-.0071.1024-.0066.0305-.0171.056-.031.0751-.0138.0192-.0308.0315-.0499.0364-.019.0052-.0399.0028-.0613-.0071s-.043-.027-.0635-.0504-.0395-.0526-.056-.086-.03-.0702-.0399-.1084-.0159-.0769-.0177-.1141.0006-.072.0071-.1025c.0066-.0304.0171-.056.0309-.0751.0139-.0192.0309-.0315.05-.0364.0051-.0012.0104-.0019.0157-.002zm-.3164.4766s.0358.226.1855.3008c.1498.0749.8614-.1504.8614-.1504-.337.262-.9727.263-.9727.338v.373c0 .4079.0263 1.4614-.0313 1.6856.8238.0045 2.09 1.1255 2.09 2.508v.0741c-.0375-1.3478-1.6091-2.4337-2.0958-2.4337s-2.0603 1.0485-2.0978 2.4337v-.0742c0-1.3626 1.2326-2.47 2.0567-2.506-.0704-.5517-.0722-1.1372-.0722-1.6875v-.373c-.2145-.0954-.4322-.1714-.6563-.2364.1846.0326.371.0488.545.0488.1497-.0749.1875-.3008.1875-.3008zm-3.0412 1.3477c.0026-.0001.0052-.0001.0078 0 .0198-.0001.0394.0038.0577.0113.0182.0075.0348.0186.0488.0326s.0251.0306.0326.0489c.0075.0182.0114.0378.0113.0576.0001.0198-.0038.0394-.0113.0577-.0075.0182-.0186.0348-.0326.0488s-.0306.0251-.0488.0326c-.0183.0075-.0379.0114-.0577.0113-.0198.0001-.0394-.0038-.0576-.0113-.0183-.0075-.0349-.0186-.0489-.0326s-.0251-.0306-.0326-.0488c-.0075-.0183-.0114-.0379-.0113-.0577-.0002-.0386.0145-.0758.0411-.1038.0266-.0281.0629-.0447.1015-.0466zm1.1231 0c.0026-.0001.0052-.0001.0078 0 .0198-.0001.0394.0038.0577.0113.0182.0075.0348.0186.0488.0326s.0251.0306.0326.0489c.0075.0182.0114.0378.0113.0576.0001.0198-.0038.0394-.0113.0577-.0075.0182-.0186.0348-.0326.0488s-.0306.0251-.0488.0326c-.0183.0075-.0379.0114-.0577.0113-.0198.0001-.0394-.0038-.0576-.0113-.0183-.0075-.0349-.0186-.0489-.0326s-.0251-.0306-.0326-.0488c-.0075-.0183-.0114-.0379-.0113-.0577-.0002-.0386.0145-.0758.0411-.1038.0266-.0281.0629-.0447.1015-.0466zm3.67 0c.0026-.0001.0053-.0001.0079 0 .0198-.0001.0394.0038.0577.0113.0182.0075.0348.0186.0488.0326s.0251.0306.0326.0489c.0075.0182.0114.0378.0113.0576.0001.0198-.0038.0394-.0113.0577-.0075.0182-.0186.0348-.0326.0488s-.0306.0251-.0488.0326c-.0183.0075-.0379.0114-.0577.0113-.0198.0001-.0394-.0038-.0576-.0113-.0183-.0075-.0349-.0186-.0489-.0326s-.0251-.0306-.0326-.0488c-.0075-.0183-.0114-.0379-.0113-.0577-.0002-.0386.0145-.0758.0411-.1038.0266-.0281.0628-.0447.1014-.0466zm1.1232 0c.0026-.0001.0052-.0001.0078 0 .0198-.0001.0394.0038.0577.0113.0182.0075.0348.0186.0488.0326s.0251.0306.0326.0489c.0075.0182.0114.0378.0113.0576.0001.0198-.0038.0394-.0113.0577-.0075.0182-.0186.0348-.0326.0488s-.0306.0251-.0488.0326c-.0183.0075-.0379.0114-.0577.0113-.0198.0001-.0394-.0038-.0576-.0113-.0183-.0075-.0349-.0186-.0489-.0326s-.0251-.0306-.0326-.0488c-.0075-.0183-.0114-.0379-.0113-.0577-.0002-.0386.0145-.0758.0411-.1038.0266-.0281.0629-.0447.1015-.0466zm-5.6526.8985c.0026-.0001.0052-.0001.0078 0 .0396.0004.0774.0164.1052.0446s.0434.0662.0432.1058c.0002.0396-.0154.0776-.0432.1058s-.0656.0442-.1052.0446c-.0198.0001-.0394-.0038-.0576-.0113-.0183-.0075-.0349-.0186-.0489-.0326s-.0251-.0306-.0326-.0488c-.0075-.0183-.0114-.0379-.0113-.0577-.0002-.0386.0145-.0758.0411-.1038.0266-.0281.0629-.0447.1015-.0466zm5.3908 0h.006c.0198-.0001.0393.0038.0576.0113.0183.0076.0349.0186.0489.0326.0139.014.025.0306.0325.0489s.0114.0378.0113.0576c.0001.0198-.0038.0394-.0113.0577-.0075.0182-.0186.0348-.0326.0488s-.0306.0251-.0488.0326c-.0183.0075-.0379.0114-.0577.0113-.0396-.0004-.0774-.0164-.1052-.0446s-.0434-.0662-.0432-.1058c-.0002-.0386.0145-.0758.0411-.1038.0265-.028.0628-.0447.1014-.0466z"/></svg>
