<svg viewBox="0 0 33 32" xmlns="http://www.w3.org/2000/svg"><path d="m16.5 28c-6.627 0-12-5.373-12-12s5.373-12 12-12 12 5.373 12 12-5.373 12-12 12zm0-.75c6.213 0 11.25-5.037 11.25-11.25s-5.037-11.25-11.25-11.25-11.25 5.037-11.25 11.25 5.037 11.25 11.25 11.25zm0-21.25c.0663 0 .1299.02634.1768.07322.0469.04689.0732.11048.0732.17678v1c0 .0663-.0263.12989-.0732.17678-.0469.04688-.1105.07322-.1768.07322s-.1299-.02634-.1768-.07322c-.0469-.04689-.0732-.11048-.0732-.17678v-1c0-.0663.0263-.12989.0732-.17678.0469-.04688.1105-.07322.1768-.07322zm0 18.5c.0663 0 .1299.0263.1768.0732s.0732.1105.0732.1768v1c0 .0663-.0263.1299-.0732.1768s-.1105.0732-.1768.0732-.1299-.0263-.1768-.0732-.0732-.1105-.0732-.1768v-1c0-.0663.0263-.1299.0732-.1768s.1105-.0732.1768-.0732zm7.071-15.571c.0467.04686.0729.11033.0729.1765s-.0262.12964-.0729.1765l-.707.708c-.0469.0469-.1106.0733-.177.0733s-.1301-.0264-.177-.0733c-.0469-.04694-.0733-.11061-.0733-.177s.0264-.13006.0733-.177l.708-.707c.0469-.04672.1103-.07295.1765-.07295s.1296.02623.1765.07295zm-13.081 13.081c.0233.0232.0418.0508.0544.0812s.019.0629.019.0958-.0064.0654-.019.0958-.0311.058-.0544.0812l-.708.707c-.02266.0254-.05026.0458-.08111.0601-.03085.0144-.06429.0222-.09828.0232-.034.0009-.06783-.0051-.09943-.0176-.0316-.0126-.0603-.0315-.08434-.0555-.02405-.0241-.04294-.0528-.05551-.0844-.01258-.0316-.01857-.0654-.01762-.0994s.00883-.0674.02315-.0983c.01432-.0308.03479-.0584.06014-.0811l.707-.708c.0232-.0233.0508-.0418.0812-.0544s.0629-.019.0958-.019.0654.0064.0958.019.058.0311.0812.0544zm-1.061-13.08c.04686-.04672.11033-.07295.1765-.07295s.12964.02623.1765.07295l.708.707c.0232.02324.0417.05084.0543.08121.0125.03037.019.06292.019.09579s-.0065.06542-.019.09579c-.0126.03037-.0311.05797-.0543.08121-.0232.0232-.0508.0417-.0812.0543-.0304.0125-.0629.019-.0958.019s-.0654-.0065-.0958-.019c-.0304-.0126-.058-.0311-.0812-.0543l-.707-.708c-.04672-.04686-.07295-.11033-.07295-.1765s.02623-.12964.07295-.1765zm13.081 13.08c.0232-.0233.0508-.0418.0812-.0544s.0629-.019.0958-.019.0654.0064.0958.019.058.0311.0812.0544l.707.708c.0254.0227.0458.0503.0601.0811.0144.0309.0222.0643.0232.0983.0009.034-.0051.0678-.0176.0994-.0126.0316-.0315.0603-.0555.0844-.0241.024-.0528.0429-.0844.0555-.0316.0125-.0654.0185-.0994.0176-.034-.001-.0674-.0088-.0983-.0232-.0308-.0143-.0584-.0347-.0811-.0601l-.708-.707c-.0233-.0232-.0418-.0508-.0544-.0812s-.019-.0629-.019-.0958.0064-.0654.019-.0958.0311-.058.0544-.0812zm-16.01-6.01c0-.0663.02634-.1299.07322-.1768.04689-.0469.11048-.0732.17678-.0732h1c.0663 0 .12989.0263.17678.0732.04688.0469.07322.1105.07322.1768s-.02634.1299-.07322.1768c-.04689.0469-.11048.0732-.17678.0732h-1c-.0663 0-.12989-.0263-.17678-.0732-.04688-.0469-.07322-.1105-.07322-.1768zm18.5 0c0-.0663.0263-.1299.0732-.1768s.1105-.0732.1768-.0732h1c.0663 0 .1299.0263.1768.0732s.0732.1105.0732.1768-.0263.1299-.0732.1768-.1105.0732-.1768.0732h-1c-.0663 0-.1299-.0263-.1768-.0732s-.0732-.1105-.0732-.1768zm-4.593-9.205c.0303.01277.0578.0314.0809.05481.023.0234.0413.05114.0536.0816.0124.03047.0186.06307.0184.09595-.0003.03287-.0071.06537-.0199.09564l-.391.92c-.0119.03146-.0301.0602-.0534.08448s-.0512.04361-.0821.05683c-.031.01322-.0643.02006-.0979.0201-.0337.00005-.067-.00669-.098-.01982-.0309-.01313-.0589-.03238-.0823-.0566-.0234-.02421-.0416-.05289-.0536-.08432s-.0176-.06496-.0163-.09858c.0012-.03362.0093-.06664.0236-.09709l.39-.92c.0128-.03029.0314-.05777.0548-.08085.0234-.02309.0511-.04133.0816-.05369.0305-.01235.0631-.01857.096-.01831.0328.00026.0653.00701.0956.01985zm-7.227 17.03c.0608.026.1087.075.1335.1363.0247.0612.0242.1298-.0015.1907l-.39.92c-.0275.0585-.0766.104-.137.1271-.0603.0231-.1273.0219-.1868-.0033-.0595-.0253-.1069-.0726-.1323-.132s-.0268-.1264-.0039-.1868l.39-.92c.0128-.0303.0314-.0578.0548-.0809.0234-.023.0511-.0413.0816-.0536.0305-.0124.0631-.0186.096-.0184.0328.0003.0653.0071.0956.0199zm12.592-11.572c.0247.0614.0241.1301-.0018.191-.0259.061-.0749.1091-.1362.134l-.927.375c-.0305.0123-.0631.0186-.0959.0183-.0329-.0002-.0654-.007-.0957-.0198s-.0577-.0314-.0808-.0549c-.023-.0234-.0413-.0511-.0536-.0816s-.0186-.0631-.0183-.0959c.0002-.0329.007-.0654.0198-.0957s.0314-.0577.0549-.0808c.0234-.023.0511-.0413.0816-.0536l.927-.374c.0305-.0124.0631-.0186.096-.0184.0328.0002.0653.0069.0956.0198.0303.0128.0578.0314.0808.0549.0231.0234.0413.0512.0536.0817zm-17.153 6.93c.01239.0305.01864.0631.01841.096-.00023.0328-.00695.0653-.01977.0956s-.03149.0578-.05493.0808c-.02345.0231-.05122.0413-.08171.0536l-.927.374c-.03063.0137-.0637.021-.09724.0216-.03354.0007-.06686-.0055-.09798-.018-.03111-.0125-.05939-.0312-.08314-.0549-.02376-.0237-.0425-.0519-.05512-.083-.01262-.031-.01886-.0643-.01834-.0979.00052-.0335.00778-.0666.02136-.0973.01357-.0307.03318-.0583.05766-.0812.02447-.023.05331-.0407.0848-.0523l.927-.375c.03046-.0124.06307-.0186.09595-.0184.03289.0002.0654.0069.09568.0198.03029.0128.05774.0314.0808.0549.02306.0234.04126.0512.05357.0817zm4.135-12.455c.0614-.02471.1301-.02405.191.00182.061.02587.1091.07484.134.13618l.375.927c.0123.03047.0186.06307.0183.09594-.0002.03287-.007.06537-.0198.09564s-.0314.05772-.0549.08079c-.0234.02306-.0511.04129-.0816.05363s-.0631.01857-.0959.01831c-.0329-.00025-.0654-.00698-.0957-.01979-.0303-.01282-.0577-.03147-.0808-.05489-.023-.02343-.0413-.05116-.0536-.08163l-.374-.927c-.0124-.03046-.0186-.06307-.0184-.09595.0002-.03289.0069-.0654.0198-.09568.0128-.03029.0314-.05774.0549-.0808.0234-.02306.0512-.04126.0817-.05357zm6.93 17.153c.0305-.0124.0631-.0186.096-.0184.0328.0002.0653.0069.0956.0198.0303.0128.0578.0314.0808.0549.0231.0234.0413.0512.0536.0817l.374.927c.0137.0306.021.0637.0216.0972.0007.0336-.0055.0669-.018.098s-.0312.0594-.0549.0832c-.0237.0237-.0519.0425-.083.0551-.031.0126-.0643.0188-.0979.0183-.0335-.0005-.0666-.0078-.0973-.0213-.0307-.0136-.0583-.0332-.0812-.0577-.023-.0245-.0407-.0533-.0523-.0848l-.375-.927c-.0124-.0305-.0186-.0631-.0184-.096.0002-.0328.0069-.0653.0198-.0956.0128-.0303.0314-.0578.0549-.0808.0234-.0231.0512-.0413.0817-.0536zm-12.389-11.788c.01277-.0303.0314-.0578.05481-.0809.0234-.023.05114-.0413.0816-.0536.03047-.0124.06307-.0186.09595-.0183.03287.0002.06537.007.09564.0198l.92.391c.05848.0275.10404.0766.12711.137.02307.0603.02187.1273-.00335.1868-.02523.0595-.07251.1069-.13194.1323s-.12639.0268-.18682.0039l-.92-.39c-.03029-.0128-.05777-.0314-.08085-.0548-.02309-.0234-.04133-.0511-.05369-.0816-.01235-.0305-.01857-.0631-.01831-.096.00026-.0328.00701-.0653.01985-.0956zm17.03 7.228c.026-.0608.075-.1087.1363-.1335.0612-.0247.1298-.0242.1907.0015l.92.39c.0315.0119.0602.0301.0845.0534s.0436.0512.0568.0821c.0132.031.0201.0643.0201.0979.0001.0337-.0067.067-.0198.098-.0131.0309-.0324.0589-.0566.0823s-.0529.0416-.0843.0536c-.0315.012-.065.0176-.0986.0163s-.0667-.0093-.0971-.0236l-.92-.39c-.0303-.0128-.0578-.0314-.0809-.0548-.023-.0234-.0413-.0511-.0536-.0816-.0124-.0305-.0186-.0631-.0184-.096.0003-.0328.0071-.0653.0199-.0956zm-6.946-2.442-1.759-1.759-4.141 5.9 5.899-4.142zm6.192-7.95-5.834 8.308-8.308 5.834 5.834-8.308z"/></svg>
