<svg viewBox="0 0 32 32" xmlns="http://www.w3.org/2000/svg"><path d="m9.042 19.165c-.00132.6682-.26715 1.3087-.73937 1.7815s-1.11242.7394-1.78063.7415c-.66856-.0016-1.30927-.2679-1.78193-.7408-.47265-.4728-.73875-1.1136-.74007-1.7822.00185-.6681.26822-1.3083.74084-1.7806.47262-.4722 1.11304-.7381 1.78116-.7394h2.52zm1.271 0c.0018-.668.2681-1.308.7405-1.7802s1.1125-.7382 1.7805-.7398c.668.0016 1.3081.2676 1.7805.7398s.7387 1.1122.7405 1.7802v6.313c-.0016.6682-.2677 1.3086-.7401 1.7812s-1.1127.739-1.7809.7408c-.6682-.0018-1.3085-.2682-1.7809-.7408s-.7385-1.113-.7401-1.7812zm2.521-10.123c-.6679-.00185-1.3079-.26791-1.7802-.74007-.4724-.47216-.7387-1.11206-.7408-1.77993.0016-.66822.2677-1.30863.7401-1.78122.4724-.4726 1.1127-.73893 1.7809-.74078.6682.00185 1.3085.26818 1.7809.74078.4724.47259.7385 1.113.7401 1.78122v2.52zm0 1.271c.668.0018 1.3082.268 1.7806.7404s.7386 1.1126.7404 1.7806c-.0018.668-.268 1.3082-.7404 1.7806s-1.1126.7386-1.7806.7404h-6.312c-.66822-.0016-1.30863-.2677-1.78122-.7401-.4726-.4724-.73893-1.1127-.74078-1.7809.00185-.6682.26818-1.3085.74078-1.7809.47259-.4724 1.113-.7385 1.78122-.7401zm10.122 2.521c.0018-.6682.2682-1.3085.7408-1.7809s1.113-.7385 1.7812-.7401c.6682.0016 1.3086.2677 1.7812.7401s.739 1.1127.7408 1.7809c-.0018.6682-.2682 1.3085-.7408 1.7809s-1.113.7385-1.7812.7401h-2.522zm-1.268 0c-.0019.6684-.2683 1.3088-.7411 1.7813-.4728.4724-1.1135.7384-1.7819.7397-.668-.0018-1.308-.2681-1.7802-.7405s-.7382-1.1125-.7398-1.7805v-6.312c.0013-.66812.2672-1.30854.7394-1.78116.4723-.47262 1.1125-.73899 1.7806-.74084.6686.00132 1.3094.26742 1.7822.74007.4729.47266.7392 1.11337.7408 1.78193zm-2.523 10.122c.6686.0013 1.3094.2674 1.7822.7401.4729.4726.7392 1.1133.7408 1.7819-.0016.6686-.2679 1.3093-.7408 1.7819-.4728.4727-1.1136.7388-1.7822.7401-.6681-.0019-1.3083-.2682-1.7806-.7408-.4722-.4727-.7381-1.1131-.7394-1.7812v-2.522zm0-1.268c-.6683-.0019-1.3086-.2684-1.7809-.7412s-.738-1.1135-.7391-1.7818c.0016-.6679.2676-1.3079.7398-1.7802.4723-.4722 1.1123-.7382 1.7802-.7398h6.313c.6681.0013 1.3085.2672 1.7812.7394.4726.4723.7389 1.1125.7408 1.7806-.0013.6686-.2674 1.3094-.7401 1.7822-.4726.4729-1.1133.7392-1.7819.7408z"/></svg>
