<svg viewBox="0 0 32 33" xmlns="http://www.w3.org/2000/svg"><path d="m16.383 3.85803c-5.243 0-9.52497 4.245-9.52497 9.52497 0 4.21 2.769 7.792 6.57197 9.047v4.764c0 .37.295.664.664.664h4.506c.0873.0004.1739-.0165.2546-.0497s.1541-.0821.2158-.1439c.0618-.0617.1107-.1351.1439-.2158s.0501-.1673.0497-.2546v-4.764c.025-.008.049-.019.074-.027v.064c3.694-1.22 6.412-4.634 6.565-8.687.005-.124.007-.25.007-.375v-.022c0-.152-.006-.304-.013-.455-.238-5.03297-4.388-9.06997-9.514-9.06997zm0 6.35197c.5822.0009 1.1532.1599 1.6521.46.4988.3.9068.73 1.1803 1.2439.2736.5139.4024 1.0925.3727 1.6739-.0296.5814-.2167 1.1438-.5411 1.6272v.002c-.2944.4356-.6911.7925-1.1553 1.0393-.4642.2469-.9819.3762-1.5077.3767-.8518 0-1.6688-.3384-2.2712-.9407-.6024-.6024-.9408-1.4194-.9408-2.2713 0-.8518.3384-1.6688.9408-2.2712s1.4194-.9408 2.2712-.9408z"/></svg>
