<svg viewBox="0 0 33 32" xmlns="http://www.w3.org/2000/svg"><path d="m8.55904 4.85803-3.415 3.163 2.242 1.938-1.695 1.83297 11.17596 15.909h.114c-2.625-9.386-2.55-9.428-4.446-16.12l-.456.263c-.248.143-.451.026-.451-.26v-3.19097c-.504-1.763-.898-3.126-1.014-3.535zm15.11496 0c-.116.41-.51 1.772-1.014 3.535v3.19097c0 .286-.203.403-.45.26l-.457-.264c-1.897 6.693-1.821 6.735-4.446 16.12-.017.07.06.09.114 0l11.176-15.907-1.696-1.83397 2.243-1.938-3.415-3.163zm-11.496.75c-.118.007-.2.105-.2.271v5.12697c0 .242.172.34.38.22l3.068-1.77197c-.0548-.06102-.0853-.13998-.086-.222v-1.636c0-.067.021-.129.056-.182l-3.037-1.755c-.0539-.03385-.1173-.05155-.181-.051zm9.939 0c-.0637-.00036-.1262.01769-.18.052l-3.038 1.753c.0367.05402.0566.11771.057.183v1.636c-.0008.08265-.0321.16207-.088.223l3.068 1.76997c.21.122.38.023.38-.218v-5.12797c0-.166-.08-.265-.199-.271zm-6.35 1.863c-.101 0-.183.056-.183.125v1.636c0 .069.082.125.183.125h2.761c.101 0 .184-.056.184-.125v-1.636c0-.07-.083-.125-.184-.125zm1.294 3.64197c-.109-.0001-.217.0213-.3177.0629-.1008.0417-.1923.1028-.2694.1799s-.1383.1687-.1799.2694c-.0417.1008-.0631.2088-.063.3178.0002.1089.0217.2167.0635.3172s.103.1918.1801.2687c.077.0769.1685.1379.2691.1794.1007.0416.2085.0629.3173.0627.2199 0 .4308-.0873.5862-.2428.1555-.1554.2428-.3663.2428-.5862 0-.1089-.0214-.2168-.0632-.3174-.0417-.1007-.1028-.1921-.1799-.2691s-.1686-.138-.2693-.1797c-.1007-.0416-.2076-.0629-.3166-.0628zm-.01 4.93c-.2183.0024-.4268.0908-.5803.246-.1536.1552-.2397.3647-.2397.583 0 .109.0215.2169.0632.3175.0418.1007.1029.1921.18.2691s.1686.138.2693.1796.2086.063.3175.0628c.1089-.0001.2167-.0217.3172-.0635.1005-.0417.1919-.1029.2687-.18.0769-.0771.1379-.1685.1794-.2691.0416-.1007.0629-.2085.0627-.3174-.0002-.2197-.0877-.4303-.2431-.5855-.1555-.1553-.3662-.2425-.5859-.2425-.003 0-.006 0-.009 0zm.01 4.93c-.1088-.0001-.2166.0212-.3173.0628-.1006.0415-.1921.1024-.2691.1793-.0771.0769-.1383.1682-.1801.2688-.0418.1005-.0633.2083-.0635.3171-.0001.1091.0213.2171.063.3178.0416.1008.1028.1923.1799.2694s.1686.1383.2694.1799c.1007.0417.2087.0631.3177.0629.109 0 .2169-.0214.3175-.0632.1007-.0417.1921-.1028.2691-.1799s.138-.1686.1796-.2693.063-.2086.0628-.3176c0-.1089-.0214-.2168-.0632-.3174-.0417-.1007-.1028-.1921-.1799-.2691s-.1686-.138-.2693-.1797c-.1007-.0416-.2086-.0629-.3176-.0628z"/></svg>
