<svg viewBox="0 0 32 32" xmlns="http://www.w3.org/2000/svg"><path d="m5.125 4c-.623 0-1.125.502-1.125 1.125v21.75c0 .623.502 1.125 1.125 1.125h21.75c.623 0 1.125-.502 1.125-1.125v-21.75c0-.623-.502-1.125-1.125-1.125zm17.363 9.75c.612 0 1.154.037 1.627.111.4461.0668.8839.1808 1.306.34v2.458c-.2026-.1401-.4179-.261-.643-.361-.2322-.1045-.4718-.1914-.717-.26-.4644-.1294-.9439-.1967-1.426-.2-.3 0-.573.028-.819.086-.2193.0469-.4296.1286-.623.242-.17.104-.3.229-.393.374-.0935.1461-.1422.3165-.14.49 0 .196.053.373.156.529.104.156.252.304.443.444s.423.276.696.41c.273.135.582.274.926.416.47.197.892.407 1.266.628.374.222.695.473.963.753.268.279.472.598.614.957s.214.776.214 1.253c0 .657-.125 1.21-.373 1.656-.2423.4399-.59.8127-1.012 1.085-.4548.2884-.9589.4904-1.487.596-.566.12-1.163.18-1.79.18-.6171.0027-1.2331-.0522-1.84-.164-.5251-.0908-1.0343-.2569-1.512-.493v-2.63c.9038.7691 2.0503 1.1941 3.237 1.2.333 0 .624-.03.872-.09.249-.06.456-.144.623-.25.166-.108.29-.234.373-.38.0917-.17.1335-.3625.1204-.5552s-.0805-.3778-.1944-.5338c-.1486-.1966-.3303-.3658-.537-.5-.2563-.1699-.5263-.3184-.807-.444-.3328-.152-.6685-.2973-1.007-.436-.918-.383-1.602-.852-2.053-1.405-.45-.553-.676-1.222-.676-2.005 0-.614.123-1.141.369-1.582s.58-.804 1.004-1.089c.4485-.2959.9463-.5089 1.47-.629.58-.1367 1.1741-.2042 1.77-.201zm-15.113.188h9.563v2.166h-3.432v9.646h-2.717v-9.646h-3.414z"/></svg>
