<svg fill="none" viewBox="0 0 32 33" xmlns="http://www.w3.org/2000/svg"><path d="m4.68589 12.8529s-.56814-.4095.11362-.9564l1.5884-1.4203s.45451-.47817.93505-.0615l14.65784 11.0975v5.3215s-.0071.8356-1.0795.7433z" fill="#2489ca"/><path d="m8.46397 16.283-3.77807 3.4349s-.38823.2888 0 .8048l1.7541 1.5955s.41663.4474 1.03211-.0615l4.00529-3.0372z" fill="#1070b3"/><path d="m15.0969 16.3114 6.9288-5.2907-.0449-5.2931s-.2959-1.1552-1.2831-.55393l-9.2203 8.39183z" fill="#0877b9"/><path d="m20.9013 27.5841c.4025.4119.8901.277.8901.277l5.3996-2.6608c.6913-.4711.5942-1.0558.5942-1.0558v-15.88871c0-.69833-.7149-.93978-.7149-.93978l-4.68-2.25596c-1.0226-.63205-1.6925.11363-1.6925.11363s.8616-.62022 1.283.55392v21.009c0 .1444-.0308.2865-.0923.4143-.1231.2486-.3906.4806-1.0321.3835z" fill="#3c99d4"/></svg>
